<svg viewBox="0 0 224 280" fill="none" xmlns="http://www.w3.org/2000/svg">
  <path
    d="M112 0.5C114.431 0.5 117.333 1.10419 119.61 2.5258C121.867 3.93468 123.5 6.13451 123.5 9.38849V135.612C123.5 138.949 122.422 141.125 120.521 142.492C118.585 143.884 115.713 144.5 112 144.5C108.735 144.5 105.851 143.888 103.797 142.485C101.773 141.103 100.5 138.917 100.5 135.612V135.268V134.926V134.585V134.246V133.907V133.569V133.233V132.898V132.564V132.23V131.898V131.568V131.238V130.909V130.581V130.255V129.929V129.605V129.281V128.959V128.638V128.317V127.998V127.68V127.363V127.047V126.731V126.417V126.104V125.792V125.481V125.171V124.862V124.554V124.247V123.941V123.636V123.332V123.028V122.726V122.425V122.125V121.825V121.527V121.229V120.933V120.637V120.343V120.049V119.756V119.464V119.173V118.883V118.594V118.306V118.019V117.732V117.446V117.162V116.878V116.595V116.313V116.032V115.751V115.472V115.193V114.915V114.638V114.362V114.087V113.812V113.539V113.266V112.994V112.723V112.452V112.183V111.914V111.646V111.379V111.112V110.846V110.582V110.317V110.054V109.791V109.53V109.268V109.008V108.749V108.49V108.232V107.974V107.717V107.461V107.206V106.952V106.698V106.445V106.192V105.941V105.69V105.439V105.19V104.941V104.692V104.445V104.198V103.951V103.706V103.461V103.216V102.972V102.729V102.487V102.245V102.004V101.763V101.523V101.284V101.045V100.807V100.569V100.332V100.096V99.8601V99.6249V99.3902V99.1561V98.9226V98.6896V98.4572V98.2253V97.994V97.7633V97.533V97.3033V97.0742V96.8455V96.6174V96.3898V96.1627V95.9361V95.71V95.4844V95.2593V95.0347V94.8106V94.587V94.3638V94.1411V93.9189V93.6971V93.4758V93.255V93.0346V92.8146V92.5951V92.376V92.1574V91.9391V91.7214V91.504V91.287V91.0704V90.8543V90.6385V90.4232V90.2082V89.9937V89.7795V89.5656V89.3522V89.1391V88.9264V88.7141V88.5021V88.2905V88.0792V87.8682V87.6576V87.4473V87.2374V87.0277V86.8184V86.6095V86.4008V86.1924V85.9843V85.7766V85.5691V85.3619V85.155V84.9484V84.7421V84.536V84.3302V84.1246V83.9193V83.7143V83.5095V83.305V83.1007V82.8966V82.6928V82.4892V82.2858V82.0826V81.8797V81.677V81.4744V81.2721V81.0699V80.868V80.6662V80.4647V80.2633V80.062V79.861V79.6601V79.4593V79.2588V79.0583V78.8581V78.6579V78.4579V78.2581V78.0583V77.8587V77.6592V77.4598V77.2606V77.0614V76.8624V76.6634V76.4645V76.2658V76.0671V75.8685V75.6699V75.4715V75.2731V75.0747V74.8764V74.6782V74.48V74.2819V74.0838V73.8858V73.6877V73.4897V73.2918V73.0938V72.8959V72.6979V72.5V72.3021V72.1041V71.9062V71.7082V71.5103V71.3123V71.1142V70.9162V70.7181V70.52V70.3218V70.1236V69.9253V69.7269V69.5285V69.3301V69.1315V68.9329V68.7342V68.5355V68.3366V68.1376V67.9386V67.7394V67.5402V67.3408V67.1413V66.9417V66.7419V66.5421V66.3421V66.1419V65.9417V65.7412V65.5407V65.3399V65.139V64.938V64.7367V64.5353V64.3338V64.132V63.9301V63.7279V63.5256V63.323V63.1203V62.9174V62.7142V62.5108V62.3072V62.1034V61.8993V61.695V61.4905V61.2857V61.0807V60.8754V60.6698V60.464V60.2579V60.0516V59.845V59.6381V59.4309V59.2234V59.0157V58.8076V58.5992V58.3905V58.1816V57.9723V57.7626V57.5527V57.3424V57.1318V56.9208V56.7095V56.4979V56.2859V56.0736V55.8609V55.6478V55.4344V55.2205V55.0063V54.7918V54.5768V54.3615V54.1457V53.9296V53.713V53.496V53.2786V53.0609V52.8426V52.624V52.4049V52.1854V51.9654V51.745V51.5242V51.3029V51.0811V50.8589V50.6362V50.413V50.1894V49.9653V49.7407V49.5156V49.29V49.0639V48.8373V48.6102V48.3826V48.1545V47.9258V47.6967V47.467V47.2367V47.006V46.7747V46.5428V46.3104V46.0774V45.8439V45.6098V45.3751V45.1399V44.9041V44.6677V44.4307V44.1931V43.9549V43.7161V43.4768V43.2368V42.9962V42.7549V42.5131V42.2706V42.0275V41.7838V41.5394V41.2944V41.0487V40.8024V40.5554V40.3077V40.0594V39.8104V39.5607V39.3104V39.0593V38.8076V38.5552V38.3021V38.0483V37.7937V37.5385V37.2826V37.0259V36.7685V36.5103V36.2515V35.9919V35.7315V35.4704V35.2086V34.946V34.6826V34.4185V34.1536V33.8879V33.6215V33.3542V33.0862V32.8174V32.5478V32.2774V32.0062V31.7341V31.4613V31.1876V30.9131V30.6378V30.3617V30.0847V29.8069V29.5282V29.2487V28.9683V28.6871V28.405V28.1221V27.8382V27.5535V27.2679V26.9815V26.6941V26.4058V26.1167V25.8266V25.5357V25.2438V24.951V24.6573V24.3626V24.067V23.7705V23.4731V23.1747V22.8754V22.5751V22.2738V21.9716V21.6685V21.3643V21.0592V20.7531V20.446V20.138V19.8289V19.5188V19.2078V18.8957V18.5826V18.2686V17.9535V17.6373V17.3202V17.002V16.6828V16.3625V16.0412V15.7188V15.3954V15.0709V14.7454V14.4188V14.0911V13.7623V13.4325V13.1016V12.7696V12.4365V12.1022V11.7669V11.4305V11.093V10.7543V10.4146V10.0737V9.73165V9.38849C100.5 6.13451 102.133 3.93468 104.39 2.5258C106.667 1.10419 109.569 0.5 112 0.5Z"
    fill="url(#paint0_linear_576_37289)" stroke="#8145B5" />
  <path
    d="M105 139.141C105 138.588 105.448 138.141 106 138.141H118C118.552 138.141 119 138.588 119 139.141V140.189C119 140.742 118.552 141.189 118 141.189H106C105.448 141.189 105 140.742 105 140.189V139.141Z"
    stroke="#CDB9DF" />
  <path opacity="0.5"
    d="M124 174.944C124 167.457 118.368 143.632 117.589 140.371C117.535 140.147 117.337 140 117.106 140H106.878C106.654 140 106.462 140.135 106.402 140.351C105.589 143.279 100 163.813 100 174.944C100 180.377 102 184 112 184C122 184 124 179.703 124 174.944Z"
    fill="url(#paint1_linear_576_37289)" />
  <path
    d="M117 7.5C117 7.22386 117.224 7 117.5 7V7C117.776 7 118 7.22386 118 7.5V122.5C118 122.776 117.776 123 117.5 123V123C117.224 123 117 122.776 117 122.5V7.5Z"
    fill="#B495D0" fill-opacity="0.3" />
  <path
    d="M106 7.5C106 7.22386 106.224 7 106.5 7V7C106.776 7 107 7.22386 107 7.5V122.5C107 122.776 106.776 123 106.5 123V123C106.224 123 106 122.776 106 122.5V7.5Z"
    fill="#B495D0" fill-opacity="0.3" />
  <path
    d="M120 130.185V127.962C120 127.41 119.553 126.962 119 126.962H112H105C104.447 126.962 104 127.41 104 127.962V130.185C104 130.88 104.364 131.523 105.006 131.79C106.255 132.31 108.639 133.059 112 133.059C115.361 133.059 117.745 132.31 118.994 131.79C119.636 131.523 120 130.88 120 130.185Z"
    fill="#CDB9DF" />
  <path fill-rule="evenodd" clip-rule="evenodd"
    d="M120 9.5C120 9.22386 120.224 9 120.5 9C120.776 9 121 9.22386 121 9.5V33.5C121 33.7761 120.776 34 120.5 34C120.224 34 120 33.7761 120 33.5V9.5ZM120.5 46.6811C120.224 46.6811 120 46.905 120 47.1811V68.5379C120 68.814 120.224 69.0379 120.5 69.0379C120.776 69.0379 121 68.814 121 68.5379V47.1811C121 46.905 120.776 46.6811 120.5 46.6811ZM120.5 81.2325C120.224 81.2325 120 81.4563 120 81.7325V103.089C120 103.365 120.224 103.589 120.5 103.589C120.776 103.589 121 103.365 121 103.089V81.7325C121 81.4563 120.776 81.2325 120.5 81.2325ZM120.5 115.784C120.224 115.784 120 116.008 120 116.284V123.414C120 123.69 120.224 123.914 120.5 123.914C120.776 123.914 121 123.69 121 123.414V116.284C121 116.008 120.776 115.784 120.5 115.784Z"
    fill="#B495D0" />
  <path fill-rule="evenodd" clip-rule="evenodd"
    d="M103.5 9C103.224 9 103 9.22386 103 9.5V33.5C103 33.7761 103.224 34 103.5 34C103.776 34 104 33.7761 104 33.5V9.5C104 9.22386 103.776 9 103.5 9ZM103.5 46.6811C103.224 46.6811 103 46.905 103 47.1811V68.5379C103 68.814 103.224 69.0379 103.5 69.0379C103.776 69.0379 104 68.814 104 68.5379V47.1811C104 46.905 103.776 46.6811 103.5 46.6811ZM103.5 115.784C103.224 115.784 103 116.008 103 116.284V123.414C103 123.69 103.224 123.914 103.5 123.914C103.776 123.914 104 123.69 104 123.414V116.284C104 116.008 103.776 115.784 103.5 115.784ZM103 81.7325C103 81.4563 103.224 81.2325 103.5 81.2325C103.776 81.2325 104 81.4563 104 81.7325V103.089C104 103.365 103.776 103.589 103.5 103.589C103.224 103.589 103 103.365 103 103.089V81.7325Z"
    fill="#B495D0" />
  <path fill-rule="evenodd" clip-rule="evenodd"
    d="M112 39.0513C109.75 39.0513 107.922 39.0751 106.442 39.1826C104.957 39.2905 103.861 39.4805 103.057 39.7942C102.269 40.1014 101.779 40.5195 101.472 41.0915C101.154 41.6824 101 42.4913 101 43.6324H100C100 42.4221 100.159 41.4203 100.591 40.6176C101.033 39.7961 101.731 39.2378 102.693 38.8626C103.639 38.4938 104.855 38.2953 106.37 38.1852C107.89 38.0748 109.75 38.0513 112 38.0513C114.25 38.0513 116.11 38.0748 117.63 38.1852C119.145 38.2953 120.361 38.4938 121.307 38.8626C122.269 39.2378 122.967 39.7961 123.409 40.6176C123.841 41.4203 124 42.4221 124 43.6324H123C123 42.4913 122.846 41.6824 122.528 41.0915C122.221 40.5195 121.731 40.1014 120.943 39.7942C120.139 39.4805 119.043 39.2905 117.558 39.1826C116.078 39.0751 114.25 39.0513 112 39.0513ZM106.442 73.7339C107.922 73.6264 109.75 73.6026 112 73.6026C114.25 73.6026 116.078 73.6264 117.558 73.7339C119.043 73.8418 120.139 74.0319 120.943 74.3456C121.731 74.6528 122.221 75.0709 122.528 75.6429C122.846 76.2338 123 77.0427 123 78.1837H124C124 76.9735 123.841 75.9716 123.409 75.169C122.967 74.3474 122.269 73.7892 121.307 73.4139C120.361 73.0451 119.145 72.8466 117.63 72.7366C116.11 72.6261 114.25 72.6026 112 72.6026C109.75 72.6026 107.89 72.6261 106.37 72.7366C104.855 72.8466 103.639 73.0451 102.693 73.4139C101.731 73.7892 101.033 74.3474 100.591 75.169C100.159 75.9716 100 76.9735 100 78.1837H101C101 77.0427 101.154 76.2338 101.472 75.6429C101.779 75.0709 102.269 74.6528 103.057 74.3456C103.861 74.0319 104.957 73.8418 106.442 73.7339ZM106.442 108.285C107.922 108.178 109.75 108.154 112 108.154C114.25 108.154 116.078 108.178 117.558 108.285C119.043 108.393 120.139 108.583 120.943 108.897C121.731 109.204 122.221 109.622 122.528 110.194C122.846 110.785 123 111.594 123 112.735H124C124 111.525 123.841 110.523 123.409 109.72C122.967 108.899 122.269 108.341 121.307 107.965C120.361 107.596 119.145 107.398 117.63 107.288C116.11 107.177 114.25 107.154 112 107.154C109.75 107.154 107.89 107.177 106.37 107.288C104.855 107.398 103.639 107.596 102.693 107.965C101.731 108.341 101.033 108.899 100.591 109.72C100.159 110.523 100 111.525 100 112.735H101C101 111.594 101.154 110.785 101.472 110.194C101.779 109.622 102.269 109.204 103.057 108.897C103.861 108.583 104.957 108.393 106.442 108.285Z"
    fill="#8145B5" />
  <g style="mix-blend-mode:color-dodge" opacity="0.125" filter="url(#filter0_f_576_37289)">
    <ellipse cx="112" cy="145" rx="48" ry="80" fill="#C68AF3" />
  </g>
  <defs>
    <filter id="filter0_f_576_37289" x="0" y="1" width="224" height="288" filterUnits="userSpaceOnUse"
      color-interpolation-filters="sRGB">
      <feFlood flood-opacity="0" result="BackgroundImageFix" />
      <feBlend mode="normal" in="SourceGraphic" in2="BackgroundImageFix" result="shape" />
      <feGaussianBlur stdDeviation="32" result="effect1_foregroundBlur_576_37289" />
    </filter>
    <linearGradient id="paint0_linear_576_37289" x1="112" y1="0" x2="112" y2="145" gradientUnits="userSpaceOnUse">
      <stop stop-color="#08070C" />
      <stop offset="1" stop-color="#802BCA" />
    </linearGradient>
    <linearGradient id="paint1_linear_576_37289" x1="110.5" y1="184" x2="110.5" y2="138.718"
      gradientUnits="userSpaceOnUse">
      <stop offset="0.114583" stop-color="white" stop-opacity="0" />
      <stop offset="0.53125" stop-color="#999999" stop-opacity="0.447917" />
      <stop offset="1" stop-color="white" stop-opacity="0.4" />
    </linearGradient>
  </defs>
</svg>
